<svg width="328" height="58" viewBox="0 0 328 58" fill="none" xmlns="http://www.w3.org/2000/svg">
<path d="M18.5518 50.0529C13.2711 50.0529 8.859 48.2425 5.3154 44.6218C1.7718 40.9662 0 36.4751 0 31.1484C0 25.8565 1.7718 21.3828 5.3154 17.7273C8.859 14.0717 13.358 12.2439 18.8124 12.2439C21.9738 12.2439 24.6489 12.7313 26.8376 13.7062C29.061 14.681 31.1455 16.091 33.091 17.9362L28.9741 22.6884C25.7085 19.6595 22.3038 18.145 18.7602 18.145C15.2861 18.145 12.4026 19.3984 10.1097 21.9051C7.85151 24.4117 6.72242 27.4928 6.72242 31.1484C6.72242 34.7691 7.86888 37.8503 10.1618 40.3917C12.4547 42.8984 15.3209 44.1518 18.7602 44.1518C20.8447 44.1518 22.686 43.7688 24.2841 43.0029C25.8822 42.2021 27.5324 41.001 29.2347 39.3995L33.3515 43.5773C31.3018 45.7358 29.1305 47.3547 26.8376 48.434C24.5447 49.5132 21.7827 50.0529 18.5518 50.0529Z" fill="#75D6FF"/>
<path d="M40.0886 49.4262V12.8706H56.3475C60.5859 12.8706 63.9037 13.9324 66.3008 16.0562C68.698 18.145 69.8966 20.965 69.8966 24.5162C69.8966 27.4058 69.1149 29.7906 67.5515 31.6706C65.9882 33.5158 63.869 34.8214 61.1939 35.5873L71.043 49.4262H63.4868L54.4194 36.684H46.4984V49.4262H40.0886ZM46.4984 30.9917H55.8785C58.1714 30.9917 59.9953 30.4347 61.3502 29.3206C62.7051 28.2065 63.3826 26.6921 63.3826 24.7773C63.3826 22.8276 62.7225 21.3306 61.4023 20.2862C60.0822 19.2417 58.2235 18.7195 55.8264 18.7195H46.4984V30.9917Z" fill="#75D6FF"/>
<path d="M87.1594 49.4262V35.0128L72.6723 12.8706H80.2285L90.4424 29.0595L100.761 12.8706H108.108L93.6213 34.8562V49.4262H87.1594Z" fill="#75D6FF"/>
<path d="M113.727 49.4262V12.8706H128.11C132.348 12.8706 135.718 13.9847 138.22 16.2128C140.721 18.441 141.972 21.4351 141.972 25.1951C141.972 29.1291 140.582 32.1928 137.803 34.3862C135.058 36.5795 131.584 37.6762 127.38 37.6762H120.137V49.4262H113.727ZM120.137 31.8795H127.589C129.986 31.8795 131.897 31.2703 133.321 30.0517C134.745 28.8332 135.458 27.2317 135.458 25.2473C135.458 23.1584 134.745 21.5569 133.321 20.4428C131.931 19.2939 130.021 18.7195 127.589 18.7195H120.137V31.8795Z" fill="#75D6FF"/>
<path d="M157.499 49.4262V18.8239H145.93V12.8706H175.53V18.8239H163.961V49.4262H157.499Z" fill="#75D6FF"/>
<path d="M257.542 50.0529C251.914 50.0529 247.345 48.2773 243.836 44.7262C240.362 41.1403 238.625 36.6143 238.625 31.1484C238.625 25.9262 240.397 21.4699 243.941 17.7795C247.519 14.0891 252.018 12.2439 257.438 12.2439C260.495 12.2439 263.1 12.6617 265.254 13.4973C267.408 14.298 269.475 15.5339 271.456 17.205L267.391 22.0617C265.862 20.7388 264.316 19.7639 262.753 19.1373C261.224 18.4758 259.366 18.145 257.177 18.145C253.842 18.145 251.028 19.4158 248.735 21.9573C246.477 24.4988 245.348 27.5625 245.348 31.1484C245.348 34.9432 246.494 38.0766 248.787 40.5484C251.08 42.9855 254.068 44.204 257.75 44.204C261.155 44.204 264.09 43.2814 266.557 41.4362V34.5951H257.229V29.0073H272.758V44.3606C268.346 48.1555 263.274 50.0529 257.542 50.0529Z" fill="#75D6FF"/>
<path d="M210.5 17.3645C217.965 24.8453 217.965 36.974 210.5 44.4548C203.035 51.9356 190.932 51.9356 183.467 44.4548C176.002 36.974 176.002 24.8453 183.467 17.3645C190.932 9.88371 203.035 9.88371 210.5 17.3645ZM187.836 40.0762C192.888 45.1387 201.079 45.1387 206.13 40.0762C211.182 35.0136 211.182 26.8056 206.13 21.7431C201.078 16.6806 192.888 16.6806 187.836 21.7431C182.784 26.8057 182.784 35.0137 187.836 40.0762Z" fill="#75D6FF"/>
<path d="M310.308 17.3645C317.773 24.8453 317.773 36.974 310.308 44.4548C302.843 51.9356 290.74 51.9356 283.275 44.4548C275.81 36.974 275.81 24.8453 283.275 17.3645C290.74 9.88371 302.843 9.88371 310.308 17.3645ZM287.644 40.0762C292.696 45.1387 300.887 45.1387 305.939 40.0762C310.991 35.0136 310.991 26.8056 305.939 21.7431C300.887 16.6806 292.696 16.6806 287.644 21.7431C282.593 26.8057 282.593 35.0137 287.644 40.0762Z" fill="#75D6FF"/>
<mask id="mask0_240_575" style="mask-type:alpha" maskUnits="userSpaceOnUse" x="271" y="19" width="51" height="32">
<path d="M313.582 21.7431C314.144 22.7759 314.604 23.8496 314.962 24.9493C315.491 26.5732 315.798 28.2538 315.883 29.9435C317.8 29.267 322.602 23.4161 321.671 20.7211C320.927 18.565 315.968 20.5041 313.582 21.7431Z" fill="#FB3535"/>
<path d="M279.458 38.9974C278.905 37.8065 278.48 36.5704 278.185 35.3101C275.407 35.3016 270.295 36.1552 272.074 39.638C273.853 43.1208 279.273 43.1617 281.76 42.7467C280.836 41.571 280.069 40.3118 279.458 38.9974Z" fill="#FB3535"/>
<path fill-rule="evenodd" clip-rule="evenodd" d="M315.883 29.9435C315.798 28.2538 315.491 26.5732 314.962 24.9493L309.269 27.4794C310.454 31.8232 309.344 36.6641 305.939 40.0762C300.887 45.1387 292.696 45.1387 287.644 40.0762C286.638 39.0681 285.833 37.9352 285.227 36.7273L279.458 38.9974C280.069 40.3118 280.836 41.571 281.76 42.7467C282.226 43.3384 282.73 43.909 283.275 44.4548C290.74 51.9356 302.843 51.9356 310.308 44.4548C314.286 40.4686 316.144 35.1627 315.883 29.9435Z" fill="#FB3535"/>
<path fill-rule="evenodd" clip-rule="evenodd" d="M305.939 40.0762C300.887 45.1387 292.696 45.1387 287.644 40.0762C286.638 39.0681 285.833 37.9352 285.227 36.7273L309.269 27.4794C310.454 31.8232 309.344 36.6641 305.939 40.0762Z" fill="#FB3535"/>
</mask>
<g mask="url(#mask0_240_575)">
<path d="M319.94 23.1431C319.94 23.1429 319.939 23.1474 319.935 23.1569C319.937 23.148 319.939 23.1432 319.94 23.1431ZM318.621 23.4723C319.079 23.452 319.431 23.4643 319.69 23.4963C319.517 23.6909 319.26 23.933 318.902 24.2202C317.929 25.0009 316.404 25.9651 314.41 27.0488C310.437 29.2088 304.753 31.7651 298.304 34.1964C291.855 36.6278 285.899 38.4598 281.49 39.4598C279.279 39.9615 277.497 40.2443 276.252 40.2995C275.794 40.3198 275.442 40.3075 275.184 40.2754C275.357 40.0808 275.614 39.8387 275.971 39.5515C276.944 38.7708 278.47 37.8066 280.463 36.723C284.436 34.5629 290.12 32.0066 296.569 29.5753C303.018 27.144 308.974 25.3119 313.383 24.3119C315.595 23.8102 317.376 23.5275 318.621 23.4723ZM274.763 40.175C274.763 40.1748 274.768 40.177 274.776 40.1822C274.766 40.1778 274.763 40.1752 274.763 40.175ZM274.933 40.6286C274.933 40.6288 274.934 40.6243 274.938 40.6148C274.936 40.6238 274.934 40.6285 274.933 40.6286ZM320.097 23.5895C320.107 23.5939 320.111 23.5965 320.11 23.5967C320.11 23.5969 320.105 23.5947 320.097 23.5895Z" stroke="white" stroke-width="2"/>
</g>
</svg>
