<svg width="30" height="30" viewBox="0 0 30 30" fill="none" xmlns="http://www.w3.org/2000/svg">
<path fill-rule="evenodd" clip-rule="evenodd" d="M1.02715 0.107023C0.653726 0.277084 0.342112 0.57738 0.160431 0.942012L0 1.26413L0.000375018 14.9286C0.000562511 24.149 0.0217492 28.6689 0.0653725 28.8261C0.169056 29.1997 0.495981 29.5715 0.904466 29.7805L1.27233 29.9687L8.53662 29.9853C15.1029 30.0004 15.8105 29.9924 15.9002 29.9027C15.9893 29.8135 15.9994 29.2337 15.9994 24.1853C15.9994 19.1613 15.989 18.5569 15.9012 18.469C15.8166 18.3844 15.5614 18.3707 14.062 18.3707C12.5626 18.3707 12.3074 18.3571 12.2227 18.2725C12.1374 18.1871 12.1245 17.9013 12.1245 16.0887C12.1245 14.2761 12.1374 13.9902 12.2227 13.9048C12.3074 13.8202 12.5626 13.8066 14.062 13.8066C15.5614 13.8066 15.8166 13.793 15.9012 13.7084C15.9858 13.6237 15.9994 13.3664 15.9996 11.8483C15.9998 9.31723 16.1202 8.53269 16.6826 7.39803C17.3007 6.15096 18.269 5.30459 19.5778 4.86749C20.464 4.57151 20.8987 4.52087 22.4367 4.53425C24.2808 4.55038 25.1163 4.62259 25.2281 4.77565C25.2932 4.86468 25.3114 5.28921 25.3106 6.70659C25.3101 7.73934 25.2841 8.56389 25.2505 8.61722C25.2016 8.69481 24.9237 8.71726 23.6422 8.74714C21.8679 8.78853 21.6533 8.83499 21.2163 9.27208C20.7661 9.7225 20.7302 9.90375 20.7017 11.8745C20.6793 13.4167 20.6876 13.611 20.7798 13.7033C20.8717 13.7951 21.1082 13.8066 22.9048 13.8066C24.0166 13.8066 24.9708 13.8237 25.0252 13.8445C25.0934 13.8707 25.124 13.9628 25.1238 14.1415C25.1236 14.3661 24.7496 17.4182 24.6536 17.978C24.5856 18.3754 24.609 18.3707 22.6554 18.3707C21.1276 18.3707 20.8696 18.3843 20.7849 18.469C20.6971 18.5569 20.6867 19.1613 20.6867 24.1853C20.6867 29.2093 20.6971 29.8138 20.7849 29.9017C20.8721 29.9889 21.3116 29.9999 24.6797 29.9999C29.0759 29.9999 28.9284 30.0162 29.4717 29.4726C30.0494 28.8946 29.9989 30.2837 29.9989 14.9945C29.9989 0.19793 30.0242 1.1771 29.6271 0.628774C29.5251 0.487848 29.3069 0.29334 29.1422 0.196493L28.8427 0.0203664L15.0619 0.00579866C1.76637 -0.0082064 1.27227 -0.00464265 1.02715 0.107023Z" fill="#85FF5A"/>
</svg>
