<svg width="30" height="30" viewBox="0 0 30 30" fill="none" xmlns="http://www.w3.org/2000/svg">
<path fill-rule="evenodd" clip-rule="evenodd" d="M1.08168 0.18948C0.646154 0.400728 0.377214 0.675842 0.153929 1.13875L0 1.45784V15.0017V28.5456L0.190042 28.9259C0.40684 29.3598 0.680146 29.6248 1.13875 29.8461L1.45784 30H15.0017H28.5456L28.9259 29.81C29.3598 29.5932 29.6248 29.3199 29.8461 28.8612L30 28.5422L29.9994 15.0039L29.9988 1.4657L29.8517 1.14979C29.6426 0.700852 29.3707 0.41763 28.934 0.194158L28.5548 0L15.0102 0.00162162L1.4657 0.00318087L1.08168 0.18948ZM20.1206 7.69859C20.6082 7.85258 21.1058 8.13349 21.6042 8.53597C21.7376 8.64368 21.91 8.73181 21.9874 8.73181C22.1889 8.73181 22.8844 8.51052 23.5987 8.21913C24.0822 8.02191 24.2249 7.9858 24.2649 8.05042C24.3734 8.22611 23.9612 8.91511 23.4038 9.48967C22.8775 10.0321 22.9908 10.0746 24.0909 9.74751C24.3912 9.65813 24.6543 9.60225 24.6753 9.62333C24.8103 9.75836 24.2086 10.4814 23.2484 11.3378L22.9522 11.602V12.2219C22.9522 16.1088 20.6874 20.1159 17.3595 22.1174C15.3636 23.3179 12.7531 23.9096 10.3706 23.7017C9.90025 23.6606 9.31802 23.5889 9.07684 23.5424C7.65069 23.2671 5.51975 22.4053 5.51975 22.104C5.51975 21.9957 5.58992 21.9819 6.33056 21.9445C7.1985 21.9006 7.89093 21.7847 8.54383 21.5741C9.12412 21.3868 10.3037 20.7947 10.5834 20.5502C10.7924 20.3675 10.8099 20.3318 10.7277 20.255C10.6762 20.207 10.4517 20.1326 10.2287 20.0897C9.13977 19.8803 8.02665 18.9962 7.49682 17.9199C7.28114 17.4816 7.34732 17.4012 7.92355 17.4012C8.72457 17.4012 8.73312 17.3096 7.96778 16.9268C6.84168 16.3634 5.94705 15.2238 5.70349 14.0424C5.60089 13.5447 5.62528 13.3468 5.789 13.348C5.84676 13.3484 6.11258 13.4186 6.37971 13.5039C6.89582 13.6688 7.23493 13.7031 7.23493 13.5906C7.23493 13.553 7.06509 13.3369 6.85753 13.1104C5.99769 12.172 5.62509 10.7858 5.89291 9.52172C6.01098 8.96457 6.26027 8.41996 6.3973 8.41996C6.45493 8.41996 6.63187 8.56428 6.79054 8.74073C8.26628 10.3819 10.5205 11.7036 12.7307 12.2235C13.597 12.4274 14.5952 12.5512 14.6961 12.4674C14.7597 12.4146 14.7817 12.2095 14.7817 11.6699C14.7817 10.3774 15.11 9.57387 15.9986 8.69108C16.5808 8.11272 17.2319 7.75091 17.9938 7.58252C18.6083 7.44661 19.4724 7.49376 20.1206 7.69859Z" fill="#85FF5A"/>
</svg>
