<svg width="30" height="30" viewBox="0 0 30 30" fill="none" xmlns="http://www.w3.org/2000/svg">
<path fill-rule="evenodd" clip-rule="evenodd" d="M1.08168 0.18948C0.646154 0.400728 0.377214 0.675842 0.153929 1.13875L0 1.45784V15.0017V28.5456L0.190042 28.9259C0.40684 29.3598 0.680146 29.6248 1.13875 29.8461L1.45784 30H15.0017H28.5456L28.9259 29.81C29.3598 29.5932 29.6248 29.3199 29.8461 28.8612L30 28.5422L29.9994 15.0039L29.9988 1.4657L29.8517 1.14979C29.6426 0.700852 29.3707 0.41763 28.934 0.194158L28.5548 0L15.0102 0.00162162L1.4657 0.00318087L1.08168 0.18948ZM23.9223 7.83324C24.0613 7.89917 24.1769 8.02584 24.266 8.20996L24.4003 8.48738L24.1083 9.77906C23.9478 10.4895 23.6096 11.9828 23.3569 13.0977C22.5111 16.8282 21.8422 19.7943 21.6373 20.7234C21.5255 21.2298 21.383 21.7283 21.3205 21.831C21.1322 22.1407 20.8535 22.2764 20.4574 22.2511C20.1255 22.2299 20.0484 22.1843 18.0873 20.8507C15.5848 19.1489 15.6383 19.1811 15.465 19.2738C15.391 19.3135 14.8435 19.8049 14.2483 20.366C13.3948 21.1706 13.1195 21.3949 12.9453 21.4275C12.6466 21.4836 12.4513 21.4255 12.2516 21.2212C12.0826 21.0482 11.9686 20.7425 10.9413 17.7084C10.7048 17.0101 10.4548 16.3758 10.3856 16.2987C10.2873 16.1892 9.80551 16.0348 8.17135 15.589C7.02268 15.2756 6.00836 14.9807 5.91723 14.9335C5.56753 14.7527 5.57607 14.1697 5.93108 13.9875C6.08489 13.9085 7.82931 13.275 13.7838 11.1355C15.6533 10.4638 17.5198 9.78992 17.9314 9.63805C18.343 9.48624 19.592 9.03649 20.7069 8.63863C21.8217 8.24083 22.8321 7.87597 22.9522 7.82782C23.2464 7.70988 23.6674 7.71225 23.9223 7.83324ZM20.3638 10.5536C20.1923 10.6584 19.8415 10.8622 19.5842 11.0065C19.3269 11.1508 18.1481 11.8255 16.9647 12.5058C15.7812 13.1861 14.0411 14.1846 13.0977 14.7247C12.1544 15.2648 11.3286 15.7784 11.2626 15.8661L11.1427 16.0254L11.7621 17.882C12.2149 19.239 12.4094 19.744 12.4849 19.7585C12.623 19.7852 12.6372 19.7243 12.7859 18.4696C12.8565 17.8738 12.9422 17.3341 12.9763 17.2704C13.0103 17.2067 13.9568 16.4038 15.0794 15.4863C16.2021 14.5687 17.9766 13.1189 19.0229 12.2643C20.0691 11.4098 20.9485 10.6706 20.9772 10.6218C21.0568 10.4858 20.9765 10.3529 20.8179 10.3582C20.7397 10.3609 20.5353 10.4487 20.3638 10.5536Z" fill="#85FF5A"/>
</svg>
