<svg width="142" height="25" viewBox="0 0 142 25" fill="none" xmlns="http://www.w3.org/2000/svg">
<path d="M8.03157 21.5745C5.74543 21.5745 3.8353 20.7942 2.30118 19.2335C0.76706 17.6578 0 15.722 0 13.426C0 11.1451 0.76706 9.21674 2.30118 7.64107C3.8353 6.0654 5.78303 5.27756 8.14437 5.27756C9.51305 5.27756 10.6712 5.48765 11.6187 5.90783C12.5813 6.32801 13.4837 6.93577 14.326 7.73111L12.5437 9.77948C11.1299 8.47393 9.65593 7.82115 8.12181 7.82115C6.61777 7.82115 5.36942 8.36138 4.37675 9.44184C3.39913 10.5223 2.91032 11.8504 2.91032 13.426C2.91032 14.9867 3.40665 16.3148 4.39931 17.4102C5.39198 18.4907 6.63281 19.0309 8.12181 19.0309C9.02424 19.0309 9.82138 18.8659 10.5132 18.5357C11.2051 18.1906 11.9195 17.6729 12.6565 16.9826L14.4388 18.7833C13.5514 19.7137 12.6114 20.4115 11.6187 20.8767C10.626 21.3419 9.43033 21.5745 8.03157 21.5745Z" fill="white"/>
<path d="M17.3554 21.3044V5.54768H24.3943C26.2293 5.54768 27.6656 6.00537 28.7034 6.92076C29.7412 7.82115 30.2601 9.03667 30.2601 10.5673C30.2601 11.8129 29.9217 12.8408 29.2449 13.6511C28.5681 14.4465 27.6506 15.0092 26.4925 15.3394L30.7564 21.3044H27.4851L23.5596 15.8121H20.1304V21.3044H17.3554ZM20.1304 13.3585H24.1913C25.184 13.3585 25.9736 13.1184 26.5602 12.6382C27.1467 12.158 27.44 11.5052 27.44 10.6799C27.44 9.83951 27.1543 9.19423 26.5827 8.74404C26.0112 8.29385 25.2065 8.06875 24.1687 8.06875H20.1304V13.3585Z" fill="white"/>
<path d="M37.7336 21.3044V15.0918L31.4618 5.54768H34.7331L39.155 12.5257L43.622 5.54768H46.803L40.5312 15.0242V21.3044H37.7336Z" fill="white"/>
<path d="M49.2355 21.3044V5.54768H55.4622C57.2971 5.54768 58.7561 6.02788 59.839 6.98829C60.9219 7.9487 61.4633 9.23925 61.4633 10.8599C61.4633 12.5557 60.8617 13.8762 59.6585 14.8216C58.4703 15.767 56.9662 16.2397 55.1464 16.2397H52.0104V21.3044H49.2355ZM52.0104 13.7412H55.2366C56.2744 13.7412 57.1016 13.4786 57.7183 12.9533C58.3349 12.4281 58.6432 11.7378 58.6432 10.8825C58.6432 9.98207 58.3349 9.29178 57.7183 8.81157C57.1166 8.31636 56.2894 8.06875 55.2366 8.06875H52.0104V13.7412Z" fill="white"/>
<path d="M68.1857 21.3044V8.11377H63.1772V5.54768H75.9916V8.11377H70.9832V21.3044H68.1857Z" fill="white"/>
<path d="M111.497 21.5745C109.06 21.5745 107.082 20.8092 105.563 19.2785C104.059 17.7329 103.307 15.782 103.307 13.426C103.307 11.1751 104.074 9.25426 105.608 7.66358C107.158 6.0729 109.105 5.27756 111.452 5.27756C112.775 5.27756 113.903 5.45764 114.836 5.81779C115.768 6.16294 116.663 6.69567 117.52 7.41597L115.761 9.50937C115.099 8.93912 114.43 8.51894 113.753 8.24883C113.091 7.96371 112.286 7.82115 111.339 7.82115C109.895 7.82115 108.677 8.36888 107.684 9.46435C106.706 10.5598 106.218 11.8804 106.218 13.426C106.218 15.0617 106.714 16.4123 107.707 17.4778C108.699 18.5282 109.993 19.0534 111.587 19.0534C113.061 19.0534 114.332 18.6558 115.4 17.8604V14.9117H111.361V12.5031H118.084V19.121C116.174 20.7567 113.978 21.5745 111.497 21.5745Z" fill="white"/>
<path d="M91.1309 7.4847C94.3627 10.7092 94.3627 15.9371 91.131 19.1616C87.8992 22.386 82.6594 22.386 79.4277 19.1616C76.1959 15.9371 76.1959 10.7092 79.4277 7.4847C82.6594 4.26023 87.8992 4.26023 91.1309 7.4847ZM81.3193 17.2742C83.5063 19.4564 87.0523 19.4564 89.2393 17.2742C91.4264 15.0921 91.4264 11.5542 89.2393 9.37204C87.0523 7.18991 83.5063 7.18991 81.3193 9.37204C79.1322 11.5542 79.1322 15.0921 81.3193 17.2742Z" fill="white"/>
<path d="M134.341 7.4847C137.572 10.7092 137.572 15.9371 134.341 19.1616C131.109 22.386 125.869 22.386 122.637 19.1616C119.406 15.9371 119.406 10.7092 122.637 7.4847C125.869 4.26023 131.109 4.26023 134.341 7.4847ZM124.529 17.2742C126.716 19.4564 130.262 19.4564 132.449 17.2742C134.636 15.0921 134.636 11.5542 132.449 9.37204C130.262 7.18991 126.716 7.18991 124.529 9.37204C122.342 11.5542 122.342 15.0921 124.529 17.2742Z" fill="white"/>
<mask id="mask0_108_622" style="mask-type:alpha" maskUnits="userSpaceOnUse" x="117" y="8" width="23" height="14">
<path d="M135.758 9.37204C136.001 9.81721 136.2 10.28 136.356 10.754C136.585 11.454 136.717 12.1784 136.754 12.9067C137.584 12.6151 139.663 10.0931 139.26 8.9315C138.938 8.00218 136.791 8.83797 135.758 9.37204Z" fill="#FB3535"/>
<path d="M120.985 16.8092C120.745 16.2959 120.562 15.7631 120.434 15.2199C119.231 15.2162 117.018 15.5842 117.788 17.0854C118.558 18.5866 120.905 18.6042 121.982 18.4253C121.581 17.9185 121.249 17.3758 120.985 16.8092Z" fill="#FB3535"/>
<path fill-rule="evenodd" clip-rule="evenodd" d="M136.754 12.9067C136.717 12.1784 136.585 11.454 136.356 10.754L133.891 11.8446C134.404 13.7169 133.923 15.8035 132.449 17.2742C130.262 19.4564 126.716 19.4564 124.529 17.2742C124.093 16.8397 123.745 16.3514 123.483 15.8307L120.985 16.8092C121.249 17.3758 121.581 17.9185 121.982 18.4253C122.183 18.6804 122.402 18.9263 122.637 19.1616C125.869 22.386 131.109 22.386 134.341 19.1616C136.063 17.4434 136.867 15.1564 136.754 12.9067Z" fill="#FB3535"/>
<path fill-rule="evenodd" clip-rule="evenodd" d="M132.449 17.2742C130.262 19.4564 126.716 19.4564 124.529 17.2742C124.093 16.8397 123.745 16.3514 123.483 15.8307L133.891 11.8446C134.404 13.7169 133.923 15.8035 132.449 17.2742Z" fill="#FB3535"/>
</mask>
<g mask="url(#mask0_108_622)">
<path d="M138.554 9.9703C138.637 9.98993 138.673 10.0107 138.687 10.0211C138.683 10.0381 138.67 10.0773 138.621 10.1464C138.539 10.2606 138.394 10.4065 138.175 10.5809C137.742 10.9276 137.07 11.3492 136.204 11.8182C134.474 12.7544 132.005 13.8596 129.208 14.9096C126.41 15.9595 123.824 16.7521 121.904 17.1855C120.943 17.4026 120.159 17.5272 119.604 17.5517C119.325 17.5641 119.119 17.5502 118.982 17.5177C118.9 17.4981 118.864 17.4773 118.85 17.4669C118.854 17.4499 118.867 17.4107 118.916 17.3416C118.997 17.2274 119.143 17.0815 119.361 16.9071C119.795 16.5605 120.467 16.1388 121.333 15.6698C123.063 14.7336 125.531 13.6284 128.329 12.5785C131.126 11.5285 133.713 10.7359 135.632 10.3025C136.593 10.0854 137.377 9.96078 137.932 9.93628C138.212 9.92394 138.418 9.93783 138.554 9.9703Z" stroke="white" stroke-width="0.5"/>
</g>
</svg>
