<svg width="19" height="14" viewBox="0 0 19 14" fill="none" xmlns="http://www.w3.org/2000/svg">
<path fill-rule="evenodd" clip-rule="evenodd" d="M1.33995 0.0382839C1.05918 0.0960824 0.715803 0.291065 0.504168 0.512885C0.293943 0.733188 0.183988 0.925876 0.0696543 1.27422C0.00282031 1.47784 0 1.70841 0 6.99736C0 12.2863 0.00282031 12.5169 0.0696543 12.7205C0.183988 13.0688 0.293943 13.2615 0.504168 13.4818C0.725785 13.7142 1.05699 13.8968 1.369 13.9588C1.64524 14.0137 17.3548 14.0137 17.631 13.9588C17.943 13.8968 18.2742 13.7142 18.4958 13.4818C18.7061 13.2615 18.816 13.0688 18.9303 12.7205C18.9972 12.5169 19 12.2863 19 6.99736C19 1.70841 18.9972 1.47784 18.9303 1.27422C18.816 0.925876 18.7061 0.733188 18.4958 0.512885C18.2742 0.280563 17.943 0.0979106 17.631 0.0359114C17.3826 -0.0134857 1.58019 -0.011191 1.33995 0.0382839ZM16.9145 1.2645C16.9231 1.32809 16.2144 2.08741 13.7602 4.64392C11.8687 6.61428 10.5126 7.99709 10.3906 8.07994C10.1477 8.24489 9.78407 8.3587 9.5 8.3587C9.21593 8.3587 8.85229 8.24489 8.60938 8.07994C8.34942 7.90339 2.07812 1.37671 2.07812 1.2827C2.07812 1.2454 2.08929 1.2032 2.10295 1.18889C2.11661 1.17457 5.45229 1.1673 9.51555 1.17271L16.9033 1.18251L16.9145 1.2645ZM3.58135 4.55668C4.83784 5.86698 5.86554 6.96527 5.86521 6.99736C5.86488 7.02945 4.83784 8.12906 3.58291 9.44092C1.728 11.38 1.28536 11.8238 1.21652 11.8135L1.13184 11.8009L1.1223 7.03626C1.11703 4.41568 1.1207 2.24972 1.13039 2.22296C1.14011 2.19624 1.18156 2.17434 1.22249 2.17434C1.27129 2.17434 2.08299 2.9941 3.58135 4.55668ZM17.8682 6.99736V11.8009L17.7835 11.8135C17.7146 11.8238 17.272 11.38 15.4171 9.44092C14.1622 8.12906 13.1351 7.02945 13.1348 6.99736C13.1345 6.96527 14.1632 5.86593 15.4208 4.55442C17.2162 2.68216 17.7247 2.17235 17.7878 2.18181L17.8682 2.19379V6.99736ZM7.19443 8.33128C7.72049 8.86683 7.88968 9.01082 8.20117 9.18791C8.6319 9.43275 8.92948 9.50557 9.5 9.50557C10.0705 9.50557 10.3681 9.43275 10.7988 9.18791C11.1103 9.01082 11.2795 8.86683 11.8056 8.33128C12.0429 8.08966 12.2572 7.89195 12.2817 7.89195C12.3414 7.89195 13.6842 9.25667 15.4691 11.1312C16.5369 12.2527 16.9257 12.6847 16.9158 12.7385C16.9026 12.8105 16.735 12.8122 9.5 12.8122C2.26501 12.8122 2.09738 12.8105 2.08417 12.7385C2.07427 12.6847 2.4631 12.2527 3.53092 11.1312C5.31577 9.25667 6.65865 7.89195 6.71832 7.89195C6.74285 7.89195 6.95708 8.08966 7.19443 8.33128Z" fill="#202020" fill-opacity="0.6"/>
</svg>
