<svg width="20" height="21" viewBox="0 0 20 21" fill="none" xmlns="http://www.w3.org/2000/svg">
<path fill-rule="evenodd" clip-rule="evenodd" d="M4.27495 1.08359C3.84429 1.22708 3.62719 1.3889 2.84682 2.14812C1.9194 3.05038 1.55903 3.4582 1.37071 3.81855C0.676797 5.14634 0.958508 7.11291 2.20365 9.6333C3.11112 11.4702 4.25537 13.065 5.86149 14.7316C7.37067 16.2977 9.02365 17.5349 11.0063 18.5826C13.1287 19.7042 15.1358 20.2055 16.3704 19.9224C16.7625 19.8325 17.2961 19.5938 17.5733 19.3843C17.8246 19.1944 19.5113 17.4717 19.668 17.245C19.9575 16.8259 20.0691 16.2649 19.9573 15.7917C19.8322 15.2626 19.791 15.212 18.1672 13.5955C16.5299 11.9656 16.4797 11.9254 15.9375 11.8116C15.5103 11.7218 15.0733 11.8011 14.6525 12.0448C14.5541 12.1018 14.1024 12.5121 13.6487 12.9567C13.1938 13.4025 12.7939 13.7651 12.7571 13.7651C12.6522 13.7651 11.9367 13.374 11.5469 13.1036C10.1269 12.1187 8.64769 10.6254 7.77049 9.29125C7.43457 8.78037 7.22318 8.38379 7.22254 8.26343C7.22213 8.18118 7.32902 8.05811 7.78671 7.61392C8.785 6.645 9.08934 6.24297 9.19333 5.75573C9.28306 5.33521 9.22733 4.98489 9.0002 4.54203C8.85744 4.26367 8.76043 4.15793 7.44777 2.85008C6.60983 2.01525 5.96122 1.39948 5.83252 1.31664C5.34355 1.00198 4.7751 0.916909 4.27495 1.08359ZM5.1939 2.07337C5.44563 2.19147 8.0289 4.75722 8.14653 5.00597C8.2734 5.27435 8.28381 5.43847 8.19 5.69259C8.11406 5.89843 8.03781 5.98491 7.18258 6.83555C6.51491 7.49964 6.24513 7.79259 6.21352 7.88798C6.1224 8.16281 6.18056 8.4208 6.45634 8.96542C6.96909 9.97803 7.64824 10.8739 8.76871 12.016C9.88511 13.1539 10.9958 14.0007 12.1389 14.5855C12.5475 14.7945 12.6246 14.8215 12.81 14.8203C12.9376 14.8196 13.0705 14.7926 13.15 14.7516C13.2218 14.7144 13.6832 14.2862 14.1755 13.8C15.1394 12.8479 15.2525 12.7653 15.5941 12.7638C15.9489 12.7623 16.0398 12.8351 17.5008 14.2929C18.6212 15.4109 18.8663 15.674 18.9451 15.8435C19.0731 16.1189 19.0678 16.2969 18.9226 16.5892C18.823 16.7897 18.6577 16.9732 17.8694 17.7583C16.8379 18.7856 16.7356 18.8598 16.18 18.9828C15.6419 19.102 14.7356 19.0072 13.8171 18.7355C12.4206 18.3225 10.5392 17.334 8.99297 16.2008C6.01249 14.0165 3.45491 10.6825 2.39305 7.59744C1.91523 6.20912 1.83779 5.1332 2.16342 4.40708C2.3083 4.08403 2.54501 3.80927 3.42519 2.94242C4.14177 2.23675 4.28665 2.11108 4.46308 2.04231C4.71399 1.94451 4.93959 1.95408 5.1939 2.07337Z" fill="#202020" fill-opacity="0.6"/>
</svg>
