<svg width="809" height="165" viewBox="0 0 809 165" fill="none" xmlns="http://www.w3.org/2000/svg">
<path d="M43.7907 124.921C31.4718 124.921 21.1791 120.54 12.9125 111.778C4.64587 102.931 0.512573 92.0627 0.512573 79.172C0.512573 66.3656 4.64587 55.5391 12.9125 46.6926C21.1791 37.8461 31.6744 33.4228 44.3985 33.4228C51.7736 33.4228 58.0141 34.6023 63.1199 36.9614C68.3068 39.3205 73.1695 42.7327 77.708 47.1981L68.1042 58.6986C60.4859 51.3686 52.5435 47.7036 44.2769 47.7036C36.1724 47.7036 29.4457 50.7367 24.0967 56.8029C18.8288 62.8691 16.1948 70.3255 16.1948 79.172C16.1948 87.9343 18.8693 95.3907 24.2183 101.541C29.5672 107.607 36.2535 110.64 44.2769 110.64C49.1396 110.64 53.435 109.714 57.1631 107.86C60.8912 105.922 64.7408 103.016 68.712 99.1399L78.3159 109.25C73.5342 114.474 68.4689 118.392 63.1199 121.004C57.7709 123.615 51.3279 124.921 43.7907 124.921Z" fill="#FF00B8"/>
<path d="M94.0323 123.405V34.9393H131.961C141.849 34.9393 149.589 37.5091 155.181 42.6485C160.773 47.7036 163.569 54.5281 163.569 63.1219C163.569 70.1149 161.745 75.8862 158.098 80.4358C154.451 84.9012 149.508 88.0607 143.267 89.9143L166.243 123.405H148.616L127.463 92.5682H108.985V123.405H94.0323ZM108.985 78.7929H130.867C136.216 78.7929 140.471 77.4449 143.632 74.7488C146.793 72.0527 148.373 68.3877 148.373 63.7538C148.373 59.0356 146.833 55.4128 143.753 52.8852C140.674 50.3576 136.338 49.0938 130.746 49.0938H108.985V78.7929Z" fill="#FF00B8"/>
<path d="M203.84 123.405V88.5241L170.044 34.9393H187.672L211.499 74.1169L235.569 34.9393H252.71L218.915 88.145V123.405H203.84Z" fill="#FF00B8"/>
<path d="M265.818 123.405V34.9393H299.37C309.258 34.9393 317.119 37.6354 322.955 43.0276C328.79 48.4198 331.707 55.6655 331.707 64.7648C331.707 74.2854 328.466 81.6996 321.982 87.0075C315.579 92.3155 307.475 94.9694 297.669 94.9694H280.771V123.405H265.818ZM280.771 80.9414H298.155C303.747 80.9414 308.204 79.4669 311.527 76.5181C314.85 73.5692 316.512 69.6936 316.512 64.8912C316.512 59.836 314.85 55.9604 311.527 53.2643C308.285 50.484 303.828 49.0938 298.155 49.0938H280.771V80.9414Z" fill="#FF00B8"/>
<path d="M367.931 123.405V49.3466H340.943V34.9393H409.993V49.3466H383.005V123.405H367.931Z" fill="#FF00B8"/>
<path d="M601.312 124.921C588.183 124.921 577.525 120.624 569.34 112.031C561.235 103.353 557.183 92.3997 557.183 79.172C557.183 66.5341 561.316 55.7498 569.583 46.819C577.931 37.8882 588.426 33.4228 601.069 33.4228C608.201 33.4228 614.279 34.4338 619.304 36.4559C624.329 38.3937 629.151 41.3847 633.771 45.4288L624.289 57.1821C620.723 53.9805 617.116 51.6214 613.469 50.1048C609.903 48.504 605.567 47.7036 600.461 47.7036C592.681 47.7036 586.116 50.7789 580.767 56.9293C575.499 63.0798 572.865 70.494 572.865 79.172C572.865 88.3556 575.54 95.9383 580.889 101.92C586.238 107.818 593.208 110.767 601.798 110.767C609.741 110.767 616.589 108.534 622.343 104.069V87.5131H600.583V73.9905H636.81V111.146C626.517 120.33 614.685 124.921 601.312 124.921Z" fill="#FF00B8"/>
<path d="M491.571 45.8147C508.986 63.9183 508.986 93.2702 491.571 111.374C474.157 129.478 445.923 129.478 428.508 111.374C411.094 93.2702 411.094 63.9184 428.508 45.8147C445.923 27.711 474.157 27.711 491.571 45.8147ZM438.701 100.777C450.486 113.029 469.593 113.029 481.378 100.777C493.163 88.526 493.164 68.6625 481.378 56.411C469.593 44.1596 450.486 44.1596 438.701 56.411C426.916 68.6625 426.916 88.526 438.701 100.777Z" fill="#FF00B8"/>
<path d="M724.407 45.8147C741.821 63.9183 741.821 93.2702 724.407 111.374C706.992 129.478 678.758 129.478 661.344 111.374C643.929 93.2702 643.929 63.9184 661.344 45.8147C678.758 27.711 706.992 27.711 724.407 45.8147ZM671.537 100.777C683.322 113.029 702.429 113.029 714.214 100.777C725.999 88.526 725.999 68.6625 714.214 56.411C702.429 44.1596 683.322 44.1596 671.537 56.411C659.752 68.6625 659.752 88.526 671.537 100.777Z" fill="#FF00B8"/>
<g filter="url(#filter0_dddd_162_505)">
<path fill-rule="evenodd" clip-rule="evenodd" d="M743.211 59.3244C741.124 59.5119 738.482 59.9014 735.908 60.4011C734.381 60.6973 734.137 60.7662 734.081 60.9155C734.036 61.0375 734.823 63.087 734.994 63.293C735.081 63.3968 735.161 63.4179 735.331 63.382C738.837 62.6398 742.999 62.078 744.658 62.1229C745.372 62.1423 745.436 62.1555 745.454 62.289C745.468 62.3934 745.323 62.5633 744.937 62.8948C740.166 66.984 729.759 72.8317 716.361 78.9523C691.862 90.1438 662.853 99.8698 648.359 101.751C646.833 101.949 644.85 102.105 644.314 102.068C643.584 102.019 643.859 101.674 645.867 100.122C646.75 99.4382 649.055 97.8599 650.312 97.0774C651.305 96.4594 651.406 96.3764 651.406 96.1783C651.406 95.901 650.683 93.8783 650.559 93.8103C650.414 93.7306 650.274 93.8042 648.795 94.7389C645.439 96.8596 643.149 98.5929 641.592 100.191C640.413 101.401 639.894 102.246 639.878 102.982C639.859 103.912 640.534 104.444 642.114 104.745C642.914 104.897 645.491 104.914 646.819 104.775C655.08 103.914 667.259 100.735 682.666 95.4174C699.022 89.7732 715.68 82.7706 728.887 75.9879C734.831 72.9352 739.002 70.5411 742.5 68.1744C746.378 65.5512 748.534 63.5983 749.26 62.0525C749.481 61.5827 749.505 61.476 749.479 61.0637C749.44 60.436 749.221 60.1425 748.547 59.818C747.711 59.4158 747.204 59.3383 745.258 59.3159C744.307 59.3049 743.386 59.3087 743.211 59.3244Z" fill="white"/>
</g>
<defs>
<filter id="filter0_dddd_162_505" x="580.698" y="0.12957" width="227.97" height="163.92" filterUnits="userSpaceOnUse" color-interpolation-filters="sRGB">
<feFlood flood-opacity="0" result="BackgroundImageFix"/>
<feColorMatrix in="SourceAlpha" type="matrix" values="0 0 0 0 0 0 0 0 0 0 0 0 0 0 0 0 0 0 127 0" result="hardAlpha"/>
<feOffset/>
<feGaussianBlur stdDeviation="13.377"/>
<feComposite in2="hardAlpha" operator="out"/>
<feColorMatrix type="matrix" values="0 0 0 0 1 0 0 0 0 1 0 0 0 0 1 0 0 0 0.6 0"/>
<feBlend mode="normal" in2="BackgroundImageFix" result="effect1_dropShadow_162_505"/>
<feColorMatrix in="SourceAlpha" type="matrix" values="0 0 0 0 0 0 0 0 0 0 0 0 0 0 0 0 0 0 127 0" result="hardAlpha"/>
<feOffset/>
<feGaussianBlur stdDeviation="14.7953"/>
<feComposite in2="hardAlpha" operator="out"/>
<feColorMatrix type="matrix" values="0 0 0 0 1 0 0 0 0 1 0 0 0 0 1 0 0 0 1 0"/>
<feBlend mode="normal" in2="effect1_dropShadow_162_505" result="effect2_dropShadow_162_505"/>
<feColorMatrix in="SourceAlpha" type="matrix" values="0 0 0 0 0 0 0 0 0 0 0 0 0 0 0 0 0 0 127 0" result="hardAlpha"/>
<feOffset/>
<feGaussianBlur stdDeviation="29.59"/>
<feComposite in2="hardAlpha" operator="out"/>
<feColorMatrix type="matrix" values="0 0 0 0 1 0 0 0 0 1 0 0 0 0 1 0 0 0 0.5 0"/>
<feBlend mode="normal" in2="effect2_dropShadow_162_505" result="effect3_dropShadow_162_505"/>
<feColorMatrix in="SourceAlpha" type="matrix" values="0 0 0 0 0 0 0 0 0 0 0 0 0 0 0 0 0 0 127 0" result="hardAlpha"/>
<feOffset/>
<feGaussianBlur stdDeviation="3.45224"/>
<feComposite in2="hardAlpha" operator="out"/>
<feColorMatrix type="matrix" values="0 0 0 0 1 0 0 0 0 1 0 0 0 0 1 0 0 0 1 0"/>
<feBlend mode="normal" in2="effect3_dropShadow_162_505" result="effect4_dropShadow_162_505"/>
<feBlend mode="normal" in="SourceGraphic" in2="effect4_dropShadow_162_505" result="shape"/>
</filter>
</defs>
</svg>
