<svg width="579" height="118" viewBox="0 0 579 118" fill="none" xmlns="http://www.w3.org/2000/svg">
<path d="M30.9717 89.3291C22.1558 89.3291 14.7899 86.1937 8.87393 79.923C2.95798 73.5921 0 65.814 0 56.5889C0 47.424 2.95798 39.6761 8.87393 33.3451C14.7899 27.0141 22.3008 23.8487 31.4067 23.8487C36.6847 23.8487 41.1507 24.6928 44.8046 26.381C48.5166 28.0693 51.9966 30.5113 55.2445 33.7069L48.3716 41.9372C42.9196 36.6915 37.2357 34.0687 31.3197 34.0687C25.5198 34.0687 20.7058 36.2393 16.8779 40.5805C13.1079 44.9218 11.2229 50.2579 11.2229 56.5889C11.2229 62.8596 13.1369 68.1957 16.9649 72.5972C20.7928 76.9384 25.5778 79.1091 31.3197 79.1091C34.7997 79.1091 37.8737 78.4458 40.5417 77.1193C43.2096 75.7325 45.9646 73.6524 48.8066 70.8788L55.6795 78.1142C52.2576 81.8525 48.6326 84.6562 44.8046 86.5253C40.9767 88.3945 36.3657 89.3291 30.9717 89.3291Z" fill="#FF00B8"/>
<path d="M66.9269 88.2438V24.934H94.0707C101.147 24.934 106.686 26.773 110.688 30.451C114.69 34.0687 116.69 38.9526 116.69 45.1027C116.69 50.1071 115.385 54.2374 112.776 57.4933C110.166 60.6889 106.628 62.95 102.162 64.2765L118.604 88.2438H105.99L90.8517 66.1758H77.6278V88.2438H66.9269ZM77.6278 56.3175H93.2877C97.1156 56.3175 100.161 55.3528 102.423 53.4234C104.685 51.4939 105.816 48.8711 105.816 45.5549C105.816 42.1783 104.714 39.5857 102.51 37.7768C100.306 35.968 97.2026 35.0635 93.2007 35.0635H77.6278V56.3175Z" fill="#FF00B8"/>
<path d="M145.51 88.2438V63.2816L121.325 24.934H133.939L150.991 52.9712L168.217 24.934H180.484L156.298 63.0103V88.2438H145.51Z" fill="#FF00B8"/>
<path d="M189.864 88.2438V24.934H213.876C220.952 24.934 226.578 26.8634 230.754 30.7223C234.93 34.5812 237.018 39.7665 237.018 46.2784C237.018 53.0917 234.698 58.3977 230.058 62.1963C225.476 65.9949 219.676 67.8942 212.658 67.8942H200.565V88.2438H189.864ZM200.565 57.8551H213.006C217.008 57.8551 220.198 56.7999 222.576 54.6896C224.954 52.5792 226.143 49.8057 226.143 46.3688C226.143 42.7511 224.954 39.9776 222.576 38.0481C220.256 36.0584 217.066 35.0635 213.006 35.0635H200.565V57.8551Z" fill="#FF00B8"/>
<path d="M262.941 88.2438V35.2444H243.627V24.934H293.043V35.2444H273.729V88.2438H262.941Z" fill="#FF00B8"/>
<path d="M429.959 89.3291C420.563 89.3291 412.936 86.254 407.078 80.1039C401.278 73.8935 398.378 66.0552 398.378 56.5889C398.378 47.5446 401.336 39.8268 407.252 33.4356C413.226 27.0443 420.737 23.8487 429.785 23.8487C434.889 23.8487 439.239 24.5722 442.835 26.0193C446.431 27.4061 449.882 29.5465 453.188 32.4407L446.402 40.8519C443.85 38.5606 441.269 36.8724 438.659 35.7871C436.107 34.6415 433.004 34.0687 429.35 34.0687C423.782 34.0687 419.084 36.2694 415.256 40.671C411.486 45.0725 409.601 50.3785 409.601 56.5889C409.601 63.161 411.515 68.5876 415.343 72.8685C419.171 77.0892 424.159 79.1995 430.307 79.1995C435.991 79.1995 440.892 77.6017 445.01 74.406V62.5581H429.437V52.8807H455.363V79.4708C447.997 86.043 439.529 89.3291 429.959 89.3291Z" fill="#FF00B8"/>
<path d="M351.424 32.7168C363.886 45.6726 363.886 66.6781 351.424 79.6339C338.961 92.5897 318.755 92.5897 306.293 79.6339C293.83 66.6781 293.83 45.6726 306.293 32.7168C318.755 19.7611 338.961 19.7611 351.424 32.7168ZM313.587 72.0507C322.021 80.8184 335.695 80.8184 344.129 72.0507C352.563 63.283 352.563 49.0678 344.129 40.3001C335.695 31.5324 322.021 31.5324 313.587 40.3001C305.153 49.0678 305.153 63.283 313.587 72.0507Z" fill="#FF00B8"/>
<path d="M518.051 32.7168C530.514 45.6726 530.514 66.6781 518.051 79.6339C505.589 92.5897 485.383 92.5897 472.92 79.6339C460.458 66.6781 460.458 45.6726 472.92 32.7168C485.383 19.7611 505.589 19.7611 518.051 32.7168ZM480.215 72.0507C488.649 80.8184 502.323 80.8184 510.757 72.0507C519.191 63.283 519.191 49.0678 510.757 40.3001C502.323 31.5324 488.649 31.5324 480.215 40.3001C471.781 49.0678 471.781 63.283 480.215 72.0507Z" fill="#FF00B8"/>
<g filter="url(#filter0_dddd_326_1374)">
<path fill-rule="evenodd" clip-rule="evenodd" d="M531.508 42.385C530.015 42.5192 528.124 42.7979 526.282 43.1555C525.189 43.3675 525.014 43.4168 524.975 43.5236C524.942 43.611 525.505 45.0777 525.628 45.2251C525.69 45.2994 525.748 45.3145 525.869 45.2888C528.378 44.7577 531.356 44.3556 532.544 44.3877C533.055 44.4016 533.1 44.4111 533.114 44.5066C533.124 44.5813 533.02 44.7029 532.743 44.9401C529.329 47.8665 521.882 52.0514 512.293 56.4316C494.761 64.4407 474 71.4011 463.628 72.7474C462.536 72.8891 461.117 73.0006 460.733 72.9745C460.211 72.9391 460.408 72.6926 461.844 71.5813C462.477 71.0922 464.126 69.9627 465.026 69.4027C465.736 68.9605 465.809 68.901 465.809 68.7593C465.809 68.5608 465.291 67.1133 465.202 67.0647C465.099 67.0076 464.999 67.0603 463.94 67.7292C461.539 69.2469 459.9 70.4873 458.785 71.6307C457.941 72.4966 457.57 73.1016 457.559 73.6287C457.545 74.2936 458.028 74.6748 459.159 74.89C459.731 74.999 461.576 75.0109 462.526 74.9118C468.438 74.2952 477.153 72.02 488.18 68.2148C499.885 64.1755 511.806 59.1641 521.257 54.3102C525.511 52.1255 528.496 50.4122 531 48.7184C533.775 46.8412 535.318 45.4436 535.838 44.3374C535.996 44.0011 536.012 43.9248 535.994 43.6297C535.966 43.1805 535.809 42.9705 535.327 42.7383C534.729 42.4504 534.366 42.3949 532.973 42.3789C532.292 42.371 531.633 42.3738 531.508 42.385Z" fill="white"/>
</g>
<defs>
<filter id="filter0_dddd_326_1374" x="415.207" y="0.0225296" width="163.145" height="117.309" filterUnits="userSpaceOnUse" color-interpolation-filters="sRGB">
<feFlood flood-opacity="0" result="BackgroundImageFix"/>
<feColorMatrix in="SourceAlpha" type="matrix" values="0 0 0 0 0 0 0 0 0 0 0 0 0 0 0 0 0 0 127 0" result="hardAlpha"/>
<feOffset/>
<feGaussianBlur stdDeviation="9.57321"/>
<feComposite in2="hardAlpha" operator="out"/>
<feColorMatrix type="matrix" values="0 0 0 0 1 0 0 0 0 1 0 0 0 0 1 0 0 0 0.6 0"/>
<feBlend mode="normal" in2="BackgroundImageFix" result="effect1_dropShadow_326_1374"/>
<feColorMatrix in="SourceAlpha" type="matrix" values="0 0 0 0 0 0 0 0 0 0 0 0 0 0 0 0 0 0 127 0" result="hardAlpha"/>
<feOffset/>
<feGaussianBlur stdDeviation="10.5882"/>
<feComposite in2="hardAlpha" operator="out"/>
<feColorMatrix type="matrix" values="0 0 0 0 1 0 0 0 0 1 0 0 0 0 1 0 0 0 1 0"/>
<feBlend mode="normal" in2="effect1_dropShadow_326_1374" result="effect2_dropShadow_326_1374"/>
<feColorMatrix in="SourceAlpha" type="matrix" values="0 0 0 0 0 0 0 0 0 0 0 0 0 0 0 0 0 0 127 0" result="hardAlpha"/>
<feOffset/>
<feGaussianBlur stdDeviation="21.1759"/>
<feComposite in2="hardAlpha" operator="out"/>
<feColorMatrix type="matrix" values="0 0 0 0 1 0 0 0 0 1 0 0 0 0 1 0 0 0 0.5 0"/>
<feBlend mode="normal" in2="effect2_dropShadow_326_1374" result="effect3_dropShadow_326_1374"/>
<feColorMatrix in="SourceAlpha" type="matrix" values="0 0 0 0 0 0 0 0 0 0 0 0 0 0 0 0 0 0 127 0" result="hardAlpha"/>
<feOffset/>
<feGaussianBlur stdDeviation="2.47058"/>
<feComposite in2="hardAlpha" operator="out"/>
<feColorMatrix type="matrix" values="0 0 0 0 1 0 0 0 0 1 0 0 0 0 1 0 0 0 1 0"/>
<feBlend mode="normal" in2="effect3_dropShadow_326_1374" result="effect4_dropShadow_326_1374"/>
<feBlend mode="normal" in="SourceGraphic" in2="effect4_dropShadow_326_1374" result="shape"/>
</filter>
</defs>
</svg>
