<svg width="20" height="18" viewBox="0 0 20 18" fill="none" xmlns="http://www.w3.org/2000/svg">
<path fill-rule="evenodd" clip-rule="evenodd" d="M18.2423 0.544743C18.1348 0.575398 16.6654 1.1303 14.9771 1.77792C13.2887 2.42554 9.45256 3.89666 6.45226 5.04707C3.45196 6.19744 0.885406 7.1932 0.748853 7.25985C0.277408 7.48989 0 7.85591 0 8.24791C0 8.60623 0.274123 8.98357 0.686911 9.19348C0.802543 9.25227 1.70903 9.53529 2.70131 9.82239C3.87218 10.1611 4.53081 10.3701 4.57766 10.4176C4.61735 10.4579 5.08309 11.737 5.61323 13.2617C6.24719 15.085 6.62287 16.1091 6.71172 16.2566C6.87783 16.5324 7.1455 16.7768 7.42987 16.9124C7.61734 17.0019 7.69512 17.015 8.03599 17.0147C8.69174 17.0143 8.75974 16.9707 10.2425 15.6006C10.827 15.0604 11.3306 14.6042 11.3614 14.5869C11.3927 14.5693 11.4549 14.5755 11.5021 14.6008C11.5486 14.6258 12.2646 15.1958 13.0932 15.8674C13.9217 16.539 14.6864 17.1472 14.7924 17.2189C15.2212 17.5089 15.8549 17.5852 16.276 17.3975C16.626 17.2416 16.9645 16.8539 17.1088 16.4438C17.1428 16.3473 17.8072 13.129 18.5852 9.29216C19.8875 2.8704 19.9999 2.2848 20 1.92303C20.0001 1.60775 19.9828 1.48662 19.9128 1.31074C19.7175 0.820486 19.2886 0.525092 18.7383 0.501786C18.5583 0.494161 18.3594 0.511415 18.2423 0.544743ZM18.7702 1.74617C18.8132 1.7894 18.8484 1.8647 18.8484 1.91348C18.8484 2.08255 16.0305 15.9864 15.9704 16.1136C15.8614 16.3444 15.6462 16.3739 15.3844 16.194C14.9864 15.9203 9.74044 11.6283 9.72324 11.5622C9.7081 11.504 9.75816 11.4228 9.90848 11.2618C10.0217 11.1404 11.3862 9.68236 12.9407 8.02165C14.4951 6.36094 15.7914 4.95491 15.8214 4.89713C16.0141 4.52604 15.7274 4.0519 15.3103 4.0519C15.1289 4.0519 15.5637 3.8344 8.79767 7.3093C6.26346 8.61082 5.05145 9.21356 4.96863 9.21356C4.82371 9.21356 1.72373 8.32848 1.66621 8.27067C1.63891 8.24323 1.64431 8.21238 1.68318 8.17371C1.7145 8.1425 3.31509 7.51316 5.24001 6.77518C7.16494 6.03721 9.215 5.25117 9.7957 5.0284C14.2924 3.30343 18.339 1.75328 18.4965 1.69535C18.6108 1.6533 18.693 1.66855 18.7702 1.74617ZM12.2123 6.95884C12.2259 6.97252 12.2181 7.01913 12.195 7.06248C12.1719 7.10583 11.3142 8.03642 10.2891 9.13052C9.26388 10.2246 8.37855 11.1816 8.32165 11.2573C8.23805 11.3685 8.14638 11.6879 7.84348 12.9237C7.6374 13.7646 7.44833 14.4773 7.42334 14.5076C7.38502 14.554 7.36965 14.5542 7.32464 14.509C7.27294 14.457 5.82658 10.3503 5.82658 10.2555C5.82658 10.2296 5.8574 10.1815 5.89502 10.1488C5.99059 10.0656 12.085 6.93404 12.1512 6.93404C12.1712 6.93404 12.1987 6.9452 12.2123 6.95884ZM9.81525 13.2138C10.1779 13.5086 10.3866 13.7052 10.3943 13.7592C10.4037 13.8255 10.2115 14.0243 9.5012 14.6826C9.0034 15.144 8.56246 15.5272 8.52136 15.5341C8.469 15.5429 8.44659 15.5237 8.44659 15.4699C8.44659 15.3772 9.01932 13.0119 9.07883 12.8588C9.10194 12.7994 9.14953 12.7512 9.18453 12.7518C9.21957 12.7523 9.50339 12.9602 9.81525 13.2138Z" fill="white"/>
</svg>
