<svg width="20" height="17" viewBox="0 0 20 17" fill="none" xmlns="http://www.w3.org/2000/svg">
<path fill-rule="evenodd" clip-rule="evenodd" d="M18.2423 0.0447427C18.1348 0.0753983 16.6654 0.630304 14.9771 1.27792C13.2887 1.92554 9.45256 3.39666 6.45226 4.54707C3.45196 5.69744 0.885406 6.6932 0.748853 6.75985C0.277408 6.98989 0 7.35591 0 7.74791C0 8.10623 0.274123 8.48357 0.686911 8.69348C0.802543 8.75227 1.70903 9.03529 2.70131 9.32239C3.87218 9.66113 4.53081 9.87006 4.57766 9.91762C4.61735 9.95794 5.08309 11.237 5.61323 12.7617C6.24719 14.585 6.62287 15.6091 6.71172 15.7566C6.87783 16.0324 7.1455 16.2768 7.42987 16.4124C7.61734 16.5019 7.69512 16.515 8.03599 16.5147C8.69174 16.5143 8.75974 16.4707 10.2425 15.1006C10.827 14.5604 11.3306 14.1042 11.3614 14.0869C11.3927 14.0693 11.4549 14.0755 11.5021 14.1008C11.5486 14.1258 12.2646 14.6958 13.0932 15.3674C13.9217 16.039 14.6864 16.6472 14.7924 16.7189C15.2212 17.0089 15.8549 17.0852 16.276 16.8975C16.626 16.7416 16.9645 16.3539 17.1088 15.9438C17.1428 15.8473 17.8072 12.629 18.5852 8.79216C19.8875 2.3704 19.9999 1.7848 20 1.42303C20.0001 1.10775 19.9828 0.986617 19.9128 0.81074C19.7175 0.320486 19.2886 0.0250917 18.7383 0.00178562C18.5583 -0.00583898 18.3594 0.0114146 18.2423 0.0447427ZM18.7702 1.24617C18.8132 1.2894 18.8484 1.3647 18.8484 1.41348C18.8484 1.58255 16.0305 15.4864 15.9704 15.6136C15.8614 15.8444 15.6462 15.8739 15.3844 15.694C14.9864 15.4203 9.74044 11.1283 9.72324 11.0622C9.7081 11.004 9.75816 10.9228 9.90848 10.7618C10.0217 10.6404 11.3862 9.18236 12.9407 7.52165C14.4951 5.86094 15.7914 4.45491 15.8214 4.39713C16.0141 4.02604 15.7274 3.5519 15.3103 3.5519C15.1289 3.5519 15.5637 3.3344 8.79767 6.8093C6.26346 8.11082 5.05145 8.71356 4.96863 8.71356C4.82371 8.71356 1.72373 7.82848 1.66621 7.77067C1.63891 7.74323 1.64431 7.71238 1.68318 7.67371C1.7145 7.6425 3.31509 7.01316 5.24001 6.27518C7.16494 5.53721 9.215 4.75117 9.7957 4.5284C14.2924 2.80343 18.339 1.25328 18.4965 1.19535C18.6108 1.1533 18.693 1.16855 18.7702 1.24617ZM12.2123 6.45884C12.2259 6.47252 12.2181 6.51913 12.195 6.56248C12.1719 6.60583 11.3142 7.53642 10.2891 8.63052C9.26388 9.72457 8.37855 10.6816 8.32165 10.7573C8.23805 10.8685 8.14638 11.1879 7.84348 12.4237C7.6374 13.2646 7.44833 13.9773 7.42334 14.0076C7.38502 14.054 7.36965 14.0542 7.32464 14.009C7.27294 13.957 5.82658 9.85033 5.82658 9.7555C5.82658 9.72956 5.8574 9.68149 5.89502 9.64875C5.99059 9.56559 12.085 6.43404 12.1512 6.43404C12.1712 6.43404 12.1987 6.4452 12.2123 6.45884ZM9.81525 12.7138C10.1779 13.0086 10.3866 13.2052 10.3943 13.2592C10.4037 13.3255 10.2115 13.5243 9.5012 14.1826C9.0034 14.644 8.56246 15.0272 8.52136 15.0341C8.469 15.0429 8.44659 15.0237 8.44659 14.9699C8.44659 14.8772 9.01932 12.5119 9.07883 12.3588C9.10194 12.2994 9.14953 12.2512 9.18453 12.2518C9.21957 12.2523 9.50339 12.4602 9.81525 12.7138Z" fill="#202020" fill-opacity="0.6"/>
</svg>
